<?xml version="1.0" encoding="iso-8859-1"?>
<!-- Generator: Adobe Illustrator 19.0.0, SVG Export Plug-In . SVG Version: 6.00 Build 0)  -->
<svg version="1.1" id="Capa_1" xmlns="http://www.w3.org/2000/svg" xmlns:xlink="http://www.w3.org/1999/xlink" x="0px" y="0px"
	 viewBox="0 0 512 512" style="enable-background:new 0 0 512 512;" xml:space="preserve">
<g transform="matrix(1.25 0 0 -1.25 0 45)">
	<g>
		<path style="fill:#FFE8B6;" d="M136.533-43.647C61.144-43.647,0-125.157,0-225.691h68.267v-68.267h194.776
			c6.417,21.106,10.024,44.111,10.024,68.267C273.067-125.158,211.934-43.647,136.533-43.647"/>
		<path style="fill:#FFE8B6;" d="M329.956-202.931h55.706c-8.42,89.771-65.741,159.289-135.35,159.289
			c-75.389,0-136.522-81.51-136.522-182.044c0-24.155,3.596-47.161,10.012-68.267h206.154V-202.931z"/>
	</g>
	<g>
		<path style="fill:#FFAC33;" d="M409.6-225.686c0,100.534-61.133,182.044-136.533,182.044c-75.389,0-136.522-81.51-136.522-182.044
			c0-24.155,3.596-47.161,10.012-68.267h194.776C379.039-293.953,409.6-263.392,409.6-225.686"/>
		<path style="fill:#FFAC33;" d="M182.044-225.686H68.267v-68.267h113.778V-225.686z"/>
	</g>
	<path style="fill:#FFE8B6;" d="M0.006-225.686c0,37.695,30.572,68.255,68.267,68.255s68.267-30.561,68.267-68.255
		c0-37.706-30.572-68.267-68.267-68.267S0.006-263.392,0.006-225.686"/>
	<path style="fill:#FFAC33;" d="M159.289-43.647c-75.389,0-136.533-81.51-136.533-182.044c0-25.145,20.389-45.511,45.511-45.511
		c25.133,0,45.523,20.366,45.523,45.511c0,79.224,38.024,146.444,91.011,171.463C190.543-47.493,175.275-43.647,159.289-43.647"/>
	<g>
		<path style="fill:#FFCC4D;" d="M91.028-191.553c0-6.292-7.635-11.378-17.067-11.378s-17.067,5.086-17.067,11.378
			c0,6.292,7.635,11.378,17.067,11.378S91.028-185.261,91.028-191.553"/>
		<path style="fill:#FFCC4D;" d="M91.028-202.931c0-6.292-5.097-11.378-11.378-11.378s-11.378,5.086-11.378,11.378
			c0,6.292,5.097,11.378,11.378,11.378C85.931-191.553,91.028-196.639,91.028-202.931"/>
	</g>
	<g>
		<path style="fill:#C1694F;" d="M96.712-214.309c-2.036,0-3.982-0.421-5.791-1.081c0.012,0.364,0.102,0.717,0.102,1.081
			c0,12.572-10.183,22.756-22.756,22.756c-12.561,0-22.756-10.183-22.756-22.756c0-5.973,2.355-11.378,6.132-15.439
			c-3.72-3.141-6.132-7.759-6.132-13.005c0-7.714,5.154-14.154,12.186-16.27c1.9-6.326,7.407-10.945,14.12-11.821
			c22.494,1.764,40.255,19.718,41.677,42.314C112.129-220.463,105.166-214.309,96.712-214.309z"/>
		<path style="fill:#C1694F;" d="M102.406-214.309c6.28,0,11.378,5.086,11.378,11.378c0,6.292-5.097,11.378-11.378,11.378
			s-11.378-5.086-11.378-11.378C91.028-209.223,96.125-214.309,102.406-214.309z"/>
	</g>
	<g>
		<path style="fill:#D99E82;" d="M108.095-202.931c-9.432,0-17.067-7.646-17.067-17.067c0-9.421,7.635-17.067,17.067-17.067
			c1.479,0,2.89,0.239,4.267,0.603c0.853,3.47,1.422,7.043,1.422,10.775c0,7.247,0.421,14.348,1.036,21.368
			C112.76-203.431,110.484-202.931,108.095-202.931z"/>
		<path style="fill:#D99E82;" d="M56.895-202.931c-6.28,0-11.378-5.086-11.378-11.378c-6.28,0-11.378-5.086-11.378-11.378
			c0-6.292,5.097-11.378,11.378-11.378s11.378,5.086,11.378,11.378c6.28,0,11.378,5.086,11.378,11.378
			C68.273-208.017,63.175-202.931,56.895-202.931z"/>
		<path style="fill:#D99E82;" d="M79.65-202.931c-6.28,0-11.378-5.086-11.378-11.378c0-6.292,5.097-11.378,11.378-11.378
			c6.28,0,11.378,5.086,11.378,11.378C91.028-208.017,85.931-202.931,79.65-202.931z"/>
	</g>
	<g>
		<path style="fill:#FFD983;" d="M102.406-191.553c0-6.292-5.097-11.378-11.378-11.378c-6.28,0-11.378,5.086-11.378,11.378
			c0,6.292,5.097,11.378,11.378,11.378C97.308-180.175,102.406-185.261,102.406-191.553"/>
		<path style="fill:#FFD983;" d="M113.784-168.797c0-6.292-5.097-11.378-11.378-11.378s-11.378,5.086-11.378,11.378
			c0,6.292,5.097,11.378,11.378,11.378S113.784-162.505,113.784-168.797"/>
		<path style="fill:#FFD983;" d="M113.784-191.553c0-6.292-5.097-11.378-11.378-11.378s-11.378,5.086-11.378,11.378
			c0,6.292,5.097,11.378,11.378,11.378S113.784-185.261,113.784-191.553"/>
	</g>
	<g>
		<g>
			<path style="fill:#FFD983;" d="M102.406-168.797c-6.28,0-11.378-5.086-11.378-11.378c0-6.292,5.097-11.378,11.378-11.378
				c6.28,0,11.378,5.086,11.378,11.378S108.686-168.797,102.406-168.797z"/>
			<g>
				<path style="fill:#FFE8B6;" d="M79.65-157.42c-6.28,0-11.378-5.086-11.378-11.378s5.097-11.378,11.378-11.378
					c6.28,0,11.378,5.086,11.378,11.378S85.931-157.42,79.65-157.42z"/>
				<path style="fill:#FFE8B6;" d="M68.273-180.175c-6.28,0-11.378-5.086-11.378-11.378s5.097-11.378,11.378-11.378
					s11.378,5.086,11.378,11.378S74.553-180.175,68.273-180.175z"/>
			</g>
		</g>
		<path style="fill:#FFE8B6;" d="M102.406-168.797c-6.28,0-11.378-5.086-11.378-11.378c0-6.292,5.097-11.378,11.378-11.378
			c6.28,0,11.378,5.086,11.378,11.378S108.686-168.797,102.406-168.797z"/>
	</g>
	<path style="fill:#77B255;" d="M136.543-100.538c-6.383,0-12.129-1.979-16.259-5.143c-3.095,3.163-7.407,5.143-12.186,5.143
		c-8.397,0-15.337-6.065-16.76-14.052c-2.458,1.593-5.439,2.674-8.84,2.674c-7.862,0-14.222-5.097-14.222-11.378
		c0-2.162,0.955-4.073,2.264-5.803c-1.4-1.65-2.264-3.539-2.264-5.575c-6.292,0-11.378-5.097-11.378-11.378
		c0-2.298,0.842-4.312,2.025-6.099c-1.252-1.593-2.025-3.356-2.025-5.268c0-6.292,7.635-11.378,17.067-11.378
		c4.892,0,9.273,1.388,12.39,3.596c2.879-2.23,6.44-3.596,10.365-3.596c2.241,0,4.38,0.455,6.337,1.252
		c1.855-6.861,7.862-11.855,15.144-12.424c5.632,28.945,16.509,55.012,31.163,76.459
		C145.702-101.641,141.299-100.538,136.543-100.538z"/>
	<g>
		<path style="fill:#FFD983;" d="M136.539-100.536c0-6.28-5.097-11.378-11.378-11.378s-11.378,5.097-11.378,11.378
			c0,6.28,5.097,11.378,11.378,11.378S136.539-94.255,136.539-100.536"/>
		<path style="fill:#FFD983;" d="M147.917-77.78c0-6.28-5.097-11.378-11.378-11.378c-6.28,0-11.378,5.097-11.378,11.378
			s5.097,11.378,11.378,11.378C142.82-66.403,147.917-71.5,147.917-77.78"/>
		<path style="fill:#FFD983;" d="M113.784-123.291c0-6.28-5.097-11.378-11.378-11.378s-11.378,5.097-11.378,11.378
			s5.097,11.378,11.378,11.378S113.784-117.011,113.784-123.291"/>
	</g>
	<g>
		<path style="fill:#A6D388;" d="M91.028-123.291c-6.28,0-11.378-5.097-11.378-11.378c0-6.28,5.097-11.378,11.378-11.378
			c6.28,0,11.378,5.097,11.378,11.378C102.406-128.389,97.308-123.291,91.028-123.291z"/>
		<circle style="fill:#A6D388;" cx="108.097" cy="-117.6" r="7.111"/>
		<circle style="fill:#A6D388;" cx="73.964" cy="-151.733" r="7.111"/>
		<circle style="fill:#A6D388;" cx="108.097" cy="-151.733" r="7.111"/>
		<path style="fill:#A6D388;" d="M113.784-123.291c-6.28,0-11.378-5.097-11.378-11.378c0-6.28,5.097-11.378,11.378-11.378
			c6.28,0,11.378,5.097,11.378,11.378C125.161-128.389,120.064-123.291,113.784-123.291z"/>
		<path style="fill:#A6D388;" d="M170.673-66.403c-6.28,0-11.378-5.097-11.378-11.378c0-0.398,0.182-0.728,0.228-1.115
			c-1.855,0.683-3.823,1.115-5.916,1.115c-9.432,0-17.067-7.635-17.067-17.067c0-6.383,3.539-11.867,8.727-14.803
			c9.603,15.405,21.106,28.593,34.008,39.094C177.18-68.076,174.177-66.403,170.673-66.403z"/>
	</g>
	<g>
		<path style="fill:#DD2E44;" d="M102.406-89.158c-6.28,0-11.378-5.097-11.378-11.378c0-6.28,5.097-11.378,11.378-11.378
			c6.28,0,11.378,5.097,11.378,11.378C113.784-94.255,108.686-89.158,102.406-89.158z"/>
		<path style="fill:#DD2E44;" d="M136.539-77.78c-6.28,0-11.378-5.097-11.378-11.378s5.097-11.378,11.378-11.378
			c6.28,0,11.378,5.097,11.378,11.378S142.82-77.78,136.539-77.78z"/>
		<path style="fill:#DD2E44;" d="M159.295-55.025c-6.28,0-11.378-5.097-11.378-11.378s5.097-11.378,11.378-11.378
			c6.28,0,11.378,5.097,11.378,11.378S165.575-55.025,159.295-55.025z"/>
	</g>
	<g>
		<path style="fill:#F4900C;" d="M193.428-237.064c-6.28,0-11.378-5.086-11.378-11.378c0-6.292,5.097-11.378,11.378-11.378
			c6.28,0,11.378,5.086,11.378,11.378C204.806-242.15,199.708-237.064,193.428-237.064z"/>
		<path style="fill:#F4900C;" d="M147.917-271.197c-6.28,0-11.378-5.086-11.378-11.378c0-6.292,5.097-11.378,11.378-11.378
			s11.378,5.086,11.378,11.378C159.295-276.283,154.197-271.197,147.917-271.197z"/>
		<path style="fill:#F4900C;" d="M216.178-271.197c-6.28,0-11.378-5.086-11.378-11.378c0-6.292,5.097-11.378,11.378-11.378
			c6.292,0,11.378,5.086,11.378,11.378C227.556-276.283,222.47-271.197,216.178-271.197z"/>
		<path style="fill:#F4900C;" d="M250.311-259.82c-6.292,0-11.378-5.086-11.378-11.378c0-6.292,5.086-11.378,11.378-11.378
			s11.378,5.086,11.378,11.378C261.689-264.905,256.603-259.82,250.311-259.82z"/>
		<path style="fill:#F4900C;" d="M295.822-259.82c-6.292,0-11.378-5.086-11.378-11.378c0-6.292,5.086-11.378,11.378-11.378
			s11.378,5.086,11.378,11.378C307.2-264.905,302.114-259.82,295.822-259.82z"/>
		<path style="fill:#F4900C;" d="M329.956-271.197c-6.292,0-11.378-5.086-11.378-11.378c0-6.292,5.086-11.378,11.378-11.378
			c6.292,0,11.378,5.086,11.378,11.378C341.333-276.283,336.248-271.197,329.956-271.197z"/>
		<path style="fill:#F4900C;" d="M352.711-248.442c-6.292,0-11.378-5.086-11.378-11.378s5.086-11.378,11.378-11.378
			s11.378,5.086,11.378,11.378C364.089-253.528,359.003-248.442,352.711-248.442z"/>
		<path style="fill:#F4900C;" d="M250.311-214.309c0,6.292-5.086,11.378-11.378,11.378c-6.28,0-11.378-5.086-11.378-11.378
			s5.097-11.378,11.378-11.378C245.225-225.686,250.311-220.6,250.311-214.309z"/>
		<path style="fill:#F4900C;" d="M170.673-202.931c-6.28,0-11.378-5.086-11.378-11.378c0-6.292,5.097-11.378,11.378-11.378
			s11.378,5.086,11.378,11.378C182.05-208.017,176.953-202.931,170.673-202.931z"/>
		<path style="fill:#F4900C;" d="M386.844-225.686c-6.292,0-11.378-5.086-11.378-11.378s5.086-11.378,11.378-11.378
			c6.292,0,11.378,5.086,11.378,11.378S393.137-225.686,386.844-225.686z"/>
		<path style="fill:#F4900C;" d="M193.428-180.175c6.28,0,11.378,5.086,11.378,11.378c0,6.292-5.097,11.378-11.378,11.378
			c-6.28,0-11.378-5.086-11.378-11.378C182.05-175.09,187.148-180.175,193.428-180.175z"/>
		<path style="fill:#F4900C;" d="M250.311-157.425c6.292,0,11.378,5.097,11.378,11.378s-5.086,11.378-11.378,11.378
			s-11.378-5.097-11.378-11.378C238.933-152.328,244.019-157.425,250.311-157.425z"/>
		<path style="fill:#F4900C;" d="M216.178-111.914c6.292,0,11.378,5.097,11.378,11.378c0,6.28-5.086,11.378-11.378,11.378
			c-6.28,0-11.366-5.097-11.366-11.378C204.812-106.817,209.897-111.914,216.178-111.914z"/>
		<path style="fill:#F4900C;" d="M307.2-100.536c-6.292,0-11.378-5.097-11.378-11.378c0-6.28,5.086-11.378,11.378-11.378
			s11.378,5.097,11.378,11.378C318.578-105.633,313.492-100.536,307.2-100.536z"/>
		<path style="fill:#F4900C;" d="M273.067-89.158c6.292,0,11.378,5.097,11.378,11.378s-5.086,11.378-11.378,11.378
			c-6.292,0-11.378-5.097-11.378-11.378C261.689-84.061,266.775-89.158,273.067-89.158z"/>
		<path style="fill:#F4900C;" d="M352.711-168.797c-6.292,0-11.378-5.086-11.378-11.378c0-6.292,5.086-11.378,11.378-11.378
			s11.378,5.086,11.378,11.378S359.003-168.797,352.711-168.797z"/>
		<path style="fill:#F4900C;" d="M295.822-168.797c-6.292,0-11.378-5.086-11.378-11.378c0-6.292,5.086-11.378,11.378-11.378
			s11.378,5.086,11.378,11.378S302.114-168.797,295.822-168.797z"/>
		<path style="fill:#F4900C;" d="M273.067-214.309c-6.292,0-11.378-5.086-11.378-11.378c0-6.292,5.086-11.378,11.378-11.378
			c6.292,0,11.378,5.086,11.378,11.378C284.444-219.394,279.359-214.309,273.067-214.309z"/>
		<path style="fill:#F4900C;" d="M329.956-225.686c6.292,0,11.378,5.086,11.378,11.378c0,6.292-5.086,11.378-11.378,11.378
			c-6.292,0-11.378-5.086-11.378-11.378C318.578-220.6,323.663-225.686,329.956-225.686z"/>
	</g>
</g>
<g>
</g>
<g>
</g>
<g>
</g>
<g>
</g>
<g>
</g>
<g>
</g>
<g>
</g>
<g>
</g>
<g>
</g>
<g>
</g>
<g>
</g>
<g>
</g>
<g>
</g>
<g>
</g>
<g>
</g>
</svg>
